<?xml version="1.0" encoding="UTF-8"?>
<svg width="575px" height="190px" viewBox="0 0 575 190" version="1.1" xmlns="http://www.w3.org/2000/svg" xmlns:xlink="http://www.w3.org/1999/xlink">
    <!-- Generator: Sketch 50.2 (55047) - http://www.bohemiancoding.com/sketch -->
    <title>SELF logo 2018 Large usage</title>
    <desc>Created with Sketch.</desc>
    <defs></defs>
    <g id="Page-1" stroke="none" stroke-width="1" fill="none" fill-rule="evenodd">
        <g id="SELF-logo-2018-Large-usage" fill="#000000" fill-rule="nonzero">
            <path d="M560.7,1.1 L462,1.1 C451.9,1.1 448.6,4.7 448.6,15.6 L448.6,175 C448.6,185.1 452.2,188.4 463.1,188.4 L473.4,188.4 C484.3,188.4 487.9,185 487.9,175 L487.9,112.4 L549.1,112.4 C559.2,112.4 562.5,108.8 562.5,97.9 L562.5,90.9 C562.5,80 559.1,76.4 549.1,76.4 L488,76.4 L488,38.9 L560.7,38.9 C570.8,38.9 574.1,35.3 574.1,24.4 L574.1,15.7 C574.1,4.7 570.8,1.1 560.7,1.1 Z" id="Shape"></path>
            <path d="M411.4,150.7 L364.4,150.7 C353.2,150.7 347.3,149 343.4,145.4 C338.9,141.2 337.5,135.3 337.5,124.4 L337.5,15.6 C337.5,4.7 334.1,1.1 324.1,1.1 L311.5,1.1 C301.4,1.1 298.1,4.7 298.1,15.6 L298.1,128.3 C298.1,148.7 302,162.4 311.2,172.5 C321.5,183.4 336.4,188.4 360.4,188.4 L411.3,188.4 C421.4,188.4 424.7,184.8 424.7,173.9 L424.7,165.2 C424.8,154.3 421.5,150.7 411.4,150.7 Z" id="Shape"></path>
            <path d="M265.8,150.7 L214.3,150.7 C203.1,150.7 197.2,149 193.3,145.4 C188.8,141.2 187.4,135.3 187.4,124.4 L187.4,112.4 L252,112.4 C262.1,112.4 265.4,108.8 265.4,97.9 L265.4,90.9 C265.4,80 262,76.4 252,76.4 L187.4,76.4 L187.4,38.9 L263.5,38.9 C273.6,38.9 276.9,35.3 276.9,24.4 L276.9,15.7 C276.9,4.8 273.5,1.2 263.5,1.2 L161.5,1.2 C151.4,1.2 148.1,4.8 148.1,15.7 L148.1,128.4 C148.1,148.8 152,162.5 161.2,172.6 C171.5,183.5 186.4,188.5 210.4,188.5 L265.8,188.5 C275.9,188.5 279.2,184.9 279.2,174 L279.2,165.3 C279.2,154.3 275.9,150.7 265.8,150.7 Z" id="Shape"></path>
            <path d="M41.7,54.8 C41.7,44.7 52.9,37.7 71.3,37.7 C88.4,37.7 101.2,41.3 109.9,41.3 C116.1,41.3 118,37.9 118,31.2 L118,19 C118,10.1 116.9,7 107.1,4.5 C96.8,1.7 82.5,0 68.8,0 C31.6,0 0.8,21.8 0.8,57.6 C0.8,119.4 88.3,106.8 88.3,133.7 C88.3,144.3 77.1,151.9 55,151.9 C42.7,151.9 24.8,148.8 13.9,145.7 C10.8,144.9 9.1,144.6 7.5,144.6 C2.2,144.6 0.2,148 0.2,154.4 L0.2,169.2 C0.2,177.3 2.4,179.8 11.4,182.9 C23.7,187.1 43.3,189.6 58.4,189.6 C104.3,189.6 128.9,166.4 128.9,131.1 C129,69.9 41.7,82.2 41.7,54.8 Z" id="Shape"></path>
        </g>
    </g>
</svg>